<?xml version="1.0" standalone="no"?>
<!DOCTYPE svg PUBLIC "-//W3C//DTD SVG 20010904//EN"
 "http://www.w3.org/TR/2001/REC-SVG-20010904/DTD/svg10.dtd">
<svg version="1.0" xmlns="http://www.w3.org/2000/svg"
 width="512.000000pt" height="512.000000pt" viewBox="0 0 512.000000 512.000000"
 preserveAspectRatio="xMidYMid meet">
<metadata>
Created by potrace 1.11, written by Peter Selinger 2001-2013
</metadata>
<g transform="translate(0.000000,512.000000) scale(0.100000,-0.100000)"
fill="#000000" stroke="none">
<path d="M1497 3999 c-61 -14 -111 -45 -151 -93 -20 -25 -35 -46 -31 -46 3 0
-4 -11 -17 -24 -13 -13 -30 -33 -38 -46 -8 -12 -20 -28 -25 -34 -6 -6 -22 -27
-35 -46 -13 -19 -27 -37 -30 -40 -3 -3 -25 -32 -50 -65 -25 -33 -51 -66 -57
-73 -7 -7 -13 -16 -13 -20 0 -4 -14 -21 -30 -39 -17 -18 -30 -36 -30 -42 0 -5
-4 -11 -8 -13 -5 -1 -35 -39 -68 -83 -32 -44 -62 -81 -66 -83 -5 -2 -8 -10 -8
-18 0 -9 -4 -13 -8 -10 -5 3 -15 -7 -23 -22 -32 -61 -120 -148 -158 -157 -16
-3 -32 -5 -37 -4 -5 1 -11 0 -14 -1 -6 -3 -188 -8 -352 -10 -91 -1 -111 -5
-133 -21 -14 -11 -25 -18 -25 -14 0 4 -12 -8 -27 -27 -15 -18 -32 -36 -38 -40
-6 -5 -11 -205 -13 -574 l-2 -566 27 -37 c34 -45 49 -61 59 -61 4 0 15 -7 24
-15 13 -11 60 -15 238 -17 123 -2 226 -1 230 2 5 3 13 29 20 58 6 29 21 73 32
97 11 24 20 51 20 60 0 9 3 14 8 11 4 -2 16 14 27 36 20 41 147 177 201 215
35 25 130 72 157 79 9 2 27 7 40 10 12 3 28 6 35 6 6 1 12 4 12 7 0 10 219 16
255 7 91 -23 112 -28 123 -29 6 0 12 -4 12 -9 0 -4 3 -8 8 -7 15 2 52 -14 52
-22 0 -5 9 -9 20 -9 11 0 20 -4 20 -10 0 -5 4 -10 10 -10 5 0 19 -8 31 -17 78
-64 107 -92 102 -97 -4 -3 1 -6 10 -6 10 0 17 -4 17 -10 0 -5 11 -20 25 -34
14 -14 25 -30 25 -36 0 -5 4 -10 8 -10 12 0 67 -122 96 -210 l24 -75 577 0
c317 0 581 3 586 6 6 3 12 19 14 36 2 17 15 58 28 91 14 33 22 63 19 66 -3 3
0 6 6 6 7 0 12 5 12 11 0 39 175 240 221 254 11 4 19 11 19 16 0 10 69 44 83
41 4 -1 7 3 7 9 0 5 5 7 10 4 6 -3 10 -1 10 5 0 6 4 9 9 5 5 -3 12 -1 16 5 3
5 16 10 29 10 12 0 26 3 30 7 4 5 16 9 27 9 10 1 20 2 22 4 17 14 262 14 262
0 0 -1 8 -3 18 -5 56 -11 117 -30 117 -37 0 -4 9 -8 19 -8 11 0 23 -5 26 -10
4 -6 11 -8 16 -5 5 4 9 2 9 -2 0 -5 15 -16 33 -26 41 -23 133 -109 179 -167
53 -68 112 -184 124 -245 2 -11 8 -33 12 -50 l8 -30 229 3 229 3 43 35 c78 64
80 75 81 354 0 211 -2 255 -19 320 -37 144 -107 265 -217 377 -76 76 -108 103
-122 103 -6 0 -10 4 -10 8 0 7 -136 79 -195 103 -28 12 -107 33 -160 43 -16 3
-39 8 -51 10 -34 7 -175 18 -241 19 -35 1 -63 4 -63 8 0 4 -6 7 -12 6 -63 -2
-108 37 -268 233 -24 30 -54 66 -66 80 -82 95 -132 159 -127 164 4 3 0 6 -8 6
-8 0 -22 12 -31 28 -9 15 -28 39 -42 54 -14 15 -26 30 -26 33 0 3 -8 13 -17
23 -10 10 -36 40 -58 67 -166 201 -221 244 -345 263 -80 13 -1478 13 -1533 1z
m673 -673 l0 -294 -504 1 c-411 1 -503 3 -499 14 3 7 9 13 14 13 5 0 9 6 9 13
0 7 10 23 23 37 12 14 33 42 47 62 14 21 28 38 33 38 4 0 7 5 7 11 0 11 64 96
89 117 8 6 11 12 5 12 -5 0 -5 4 1 8 6 4 23 25 39 47 16 22 34 45 40 50 6 6
24 28 41 50 44 59 92 103 118 108 12 2 138 5 280 6 l257 2 0 -295z m795 276
c47 -18 59 -30 197 -197 7 -9 20 -24 28 -34 8 -9 28 -35 45 -56 16 -22 34 -45
40 -51 24 -27 55 -64 55 -68 0 -3 17 -23 38 -45 54 -59 62 -69 62 -81 0 -5 4
-10 9 -10 5 0 11 -6 14 -14 5 -11 -66 -14 -444 -14 l-449 0 0 42 c-1 50 -1
528 0 539 0 5 82 7 183 6 135 -1 192 -6 222 -17z"/>
<path d="M1186 2002 c-4 -3 -15 -7 -25 -9 -28 -4 -103 -39 -129 -60 -51 -39
-102 -90 -102 -101 0 -7 -4 -12 -10 -12 -5 0 -19 -22 -32 -50 -13 -27 -27 -50
-31 -50 -5 0 -5 -4 -2 -10 3 -5 3 -16 -2 -22 -19 -31 -23 -193 -6 -235 7 -18
11 -33 8 -33 -8 0 56 -125 66 -128 5 -2 9 -10 9 -18 0 -8 3 -14 8 -14 4 0 23
-15 42 -33 80 -76 173 -113 290 -116 101 -2 179 20 262 75 65 44 148 139 148
171 0 7 4 13 9 13 5 0 13 15 16 33 4 17 11 37 14 42 10 13 12 195 3 209 -3 6
-8 19 -9 30 -5 29 -64 142 -89 169 -61 66 -144 118 -224 140 -41 11 -205 19
-214 9z"/>
<path d="M3760 2006 c-3 -2 -19 -8 -35 -11 -17 -3 -35 -7 -41 -8 -6 -2 -22 -9
-35 -18 -13 -8 -36 -21 -51 -28 -26 -14 -86 -68 -120 -110 -28 -34 -64 -112
-77 -166 -14 -62 -20 -165 -9 -171 5 -3 6 -9 3 -14 -2 -4 0 -23 6 -41 66 -205
232 -329 438 -329 86 0 180 27 244 71 41 28 137 130 137 147 0 6 5 12 11 12 5
0 8 4 4 9 -3 5 2 17 11 25 8 9 13 16 10 16 -3 0 -1 11 4 26 23 60 33 189 17
212 -6 7 -7 15 -4 18 12 13 -47 150 -77 177 -10 9 -16 17 -13 17 6 0 -60 65
-85 85 -30 23 -123 64 -163 72 -37 8 -170 15 -175 9z"/>
</g>
</svg>
